<svg xmlns="http://www.w3.org/2000/svg" version="1.1" xmlns:xlink="http://www.w3.org/1999/xlink" xmlns:svgjs="http://svgjs.com/svgjs" x="0" y="0" viewBox="0 0 176 176" style="enable-background:new 0 0 512 512" xml:space="preserve" class=""><g><g data-name="Layer 2"><g data-name="52.blogger"><path d="M60.5 68.14a7.56 7.56 0 0 1 7.64-7.64h24.44a7.64 7.64 0 0 1 0 15.28H68.14a7.56 7.56 0 0 1-7.64-7.64zM115.5 107.86a7.56 7.56 0 0 1-7.64 7.64H68.14a7.64 7.64 0 0 1 0-15.28h39.72a7.57 7.57 0 0 1 7.64 7.64z" fill="#000000" data-original="#000000" class=""></path><path d="M88 0a88 88 0 1 0 88 88A88 88 0 0 0 88 0zm55 110c0 18.95-13.44 33-32.69 33H66c-19.56 0-33-14-33-33V66c0-19.25 13.44-33 32.69-33H93.5c11 0 28.11 11 28.11 27.5v15.28C138.11 75.78 143 82.5 143 99z" fill="#000000" data-original="#000000" class=""></path></g></g></g></svg>